<?xml version="1.0" encoding="UTF-8"?>
<svg id="Calque_2" data-name="Calque 2" xmlns="http://www.w3.org/2000/svg" viewBox="0 0 169.58 169.58">
  <defs>
    <style>
      .cls-1 {
        fill: none;
        stroke: #add290;
        stroke-miterlimit: 10;
        stroke-width: 3px;
      }

      .cls-2 {
        fill: #add290;
      }

      .cls-3 {
        fill: #fff;
        font-family: Cinematografica-Heavy, Cinematografica;
        font-size: 56px;
        font-weight: 800;
        letter-spacing: .05em;
      }
    </style>
  </defs>
  <g id="Calque_1-2" data-name="Calque 1">
    <g>
      <g>
        <path class="cls-2" d="m76.59,111.01h16.4v8.08h-16.4v-8.08Z"/>
        <path class="cls-2" d="m105.19,108.81h-1.14v11.92h1.14c1.31,0,2.38-1.07,2.38-2.38v-7.15c0-1.31-1.07-2.38-2.38-2.38Z"/>
        <path class="cls-2" d="m99.59,103.77h-4.52v22.56h4.52c1.31,0,2.38-1.07,2.38-2.38v-17.79c0-1.31-1.07-2.38-2.38-2.38Z"/>
        <path class="cls-2" d="m67.61,106.16v17.79c0,1.31,1.07,2.38,2.38,2.38h4.52v-22.56h-4.52c-1.31,0-2.38,1.07-2.38,2.38Z"/>
        <path class="cls-2" d="m62.01,111.19v7.15c0,1.32,1.07,2.38,2.38,2.38h1.14v-11.92h-1.14c-1.31,0-2.38,1.07-2.38,2.38Z"/>
      </g>
      <text class="cls-3" transform="translate(19.8 88.29)"><tspan x="0" y="0">Pass-D</tspan></text>
    </g>
    <rect class="cls-1" x="1.5" y="1.5" width="166.58" height="166.58" rx="12" ry="12"/>
  </g>
</svg>