<?xml version="1.0" encoding="utf-8"?>
<!-- Generator: Adobe Illustrator 28.0.0, SVG Export Plug-In . SVG Version: 6.00 Build 0)  -->
<svg version="1.1" id="Calque_1" xmlns="http://www.w3.org/2000/svg" xmlns:xlink="http://www.w3.org/1999/xlink" x="0px" y="0px"
	 viewBox="0 0 278.3 76.3" style="enable-background:new 0 0 278.3 76.3;" xml:space="preserve">
<style type="text/css">
	.st0{fill:#FFFFFF;}
	.st1{fill:#F45342;}
	.st2{fill:none;stroke:#332824;stroke-width:40;stroke-linecap:round;stroke-miterlimit:10;}
	.st3{fill:none;stroke:#F45342;stroke-width:40;stroke-miterlimit:10;}
	.st4{fill:none;stroke:#000000;stroke-linecap:round;stroke-linejoin:round;stroke-miterlimit:10;}
	.st5{fill:#EFEBE9;stroke:#000000;stroke-miterlimit:10;}
	.st6{fill:#3E3434;stroke:#000000;stroke-miterlimit:10;}
	.st7{fill:#FFFBFA;stroke:#000000;stroke-miterlimit:10;}
	.st8{fill:#DCF8DB;}
	.st9{fill:#A2FFA0;stroke:#000000;stroke-miterlimit:10;}
	.st10{fill:#FFFFFF;stroke:#000000;stroke-miterlimit:10;}
	.st11{fill:#A2FFA0;stroke:#3E3434;stroke-linejoin:round;}
	.st12{fill:#A2FFA0;}
	.st13{fill:#3E3434;}
	.st14{fill:none;stroke:#3E3434;stroke-linejoin:round;}
	.st15{fill:#F6F6F6;}
</style>
<g>
	<g>
		<g>
			<g>
				<path class="st11" d="M38.8,14.3H13.5L2.7,65.7h13.4l0.8-3.8l2.7-12.9h11.9c6.9,0,12.9-2,16.9-5.9c3.2-3.2,5.2-7.7,5.2-13.5
					C53.6,20.5,48,14.3,38.8,14.3z M24.6,25.3h7.6c4.2,0,8.1,0.6,8.1,5.5c0,1.2-0.2,2.3-0.6,3.2c-1.1,2.4-3.8,4-8.2,4H22L24.6,25.3z
					"/>
			</g>
		</g>
	</g>
	<g>
		<g>
			<g>
				<path class="st11" d="M93.6,62l-7.8-47.6H72.3l-30,51.4h14l2.1-3.8l3.1-5.4h18.1l1.2,9.2h13.5L93.6,62z M76.3,28.1h0.1l0.6,5.7
					l1,9.1l0.4,3.8H66.7L76.3,28.1z"/>
			</g>
		</g>
	</g>
	<g>
		<g>
			<path class="st12" d="M127,34.3c-7.2-1.9-9.4-2.3-9.4-5.4c0-2.9,2.8-4.3,5.8-4.6c0.3,0,0.7,0,1,0c2.4,0,4.2,0.4,5.4,1.4
				c1.2,0.9,1.8,2.2,1.8,4.2H145c0-1.4,0-2.6-0.2-3.8c-1.5-9.6-9.9-12.8-19.7-12.8c-3.8,0-7.6,0.7-11,2.1c-5.7,2.5-9.9,7.2-9.9,14.5
				c0,7.6,5.2,10.9,11.6,13.2c5.3,1.9,13.1,2.4,13.1,7.6c0,0.4,0,0.8-0.2,1.2c-0.6,2.2-2.9,3.9-7.5,3.9c-6.3,0-9.4-1.8-9.4-7.4H98.5
				c-0.1,12.2,8.4,18.4,20.7,18.4c8.5,0,14.8-2.5,18.7-6.2c3-2.9,4.5-6.6,4.5-10.6C142.3,39.9,134.1,36.2,127,34.3z"/>
		</g>
	</g>
	<g>
		<g>
			<path class="st13" d="M119.2,67.3c-7,0-12.7-2-16.4-5.7c-3.2-3.3-4.8-7.7-4.8-13.1c0-0.3,0.2-0.5,0.5-0.5h13.4
				c0.3,0,0.5,0.2,0.5,0.5c0,4.9,2.5,6.8,8.9,6.8c3.9,0,6.4-1.2,7-3.5c0.1-0.3,0.2-0.7,0.2-1.1c0-3.6-4.3-4.7-8.8-5.9
				c-1.3-0.4-2.7-0.7-3.9-1.2c-5.9-2.1-11.9-5.4-11.9-13.7c0-6.8,3.6-12.1,10.2-15c3.3-1.4,7.1-2.2,11.2-2.2
				c11.9,0,18.8,4.6,20.2,13.2c0.2,1.2,0.3,2.5,0.2,3.9c0,0.3-0.2,0.5-0.5,0.5h-13.4c-0.3,0-0.5-0.2-0.5-0.5c0-1.7-0.5-3-1.6-3.8
				c-1.1-0.9-2.8-1.3-5.1-1.3c-0.3,0-0.6,0-1,0c-2.6,0.2-5.3,1.4-5.3,4.1c0,2.4,1.3,2.9,7.6,4.5l1.4,0.4c0,0,0,0,0,0
				c6.7,1.9,15.7,5.6,15.7,16.2c0,4.2-1.6,8-4.7,11C133.9,65.1,127.3,67.3,119.2,67.3z M99,49c0,4.9,1.6,8.9,4.5,11.9
				c3.5,3.6,8.9,5.4,15.7,5.4c7.8,0,14.3-2.2,18.3-6.1c2.9-2.8,4.4-6.3,4.4-10.2c0-9.9-8.5-13.5-15-15.2l-1.4-0.4
				c-6.2-1.7-8.3-2.2-8.3-5.5c0-3.3,3.2-4.8,6.2-5.1c0.3,0,0.7-0.1,1.1-0.1c2.6,0,4.4,0.5,5.7,1.5c1.2,0.9,1.9,2.3,2,4.1h12.4
				c0-1.1-0.1-2.2-0.2-3.2c-1.5-10.2-11.3-12.4-19.2-12.4c-3.9,0-7.6,0.7-10.8,2.1c-4.4,1.9-9.6,5.9-9.6,14.1
				c0,7.7,5.7,10.8,11.3,12.8c1.2,0.4,2.5,0.8,3.9,1.1c4.7,1.3,9.6,2.6,9.6,6.9c0,0.5-0.1,1-0.2,1.4c-0.4,1.6-2,4.2-7.9,4.2
				c-6.8,0-9.8-2.2-9.9-7.3H99z"/>
		</g>
	</g>
	<g>
		<g>
			<path class="st12" d="M175,34.3c-7.2-1.9-9.4-2.3-9.4-5.4c0-2.9,2.8-4.3,5.8-4.6c0.3,0,0.7,0,1,0c2.4,0,4.2,0.4,5.4,1.4
				c1.2,0.9,1.8,2.2,1.8,4.2H193c0-1.4,0-2.6-0.2-3.8c-1.4-9.6-9.9-12.8-19.6-12.8c-3.8,0-7.7,0.7-11,2.1h0
				c-5.7,2.5-9.9,7.2-9.9,14.5c0,7.6,5.2,10.9,11.6,13.2c5.3,1.9,13.1,2.4,13.1,7.6c0,0.4,0,0.8-0.2,1.2c-0.6,2.2-2.9,3.9-7.5,3.9
				c-6.3,0-9.4-1.8-9.4-7.4h-13.4c0,1.3,0.1,2.5,0.2,3.7c1.5,9.7,9.5,14.7,20.4,14.7c8.5,0,14.8-2.5,18.7-6.2
				c3-2.9,4.5-6.6,4.5-10.6C190.4,39.9,182.1,36.2,175,34.3z"/>
		</g>
	</g>
	<g>
		<g>
			<path class="st13" d="M167.2,67.3c-11.8,0-19.5-5.5-20.9-15.1c-0.2-1.2-0.3-2.4-0.3-3.8c0-0.3,0.2-0.5,0.5-0.5h13.4
				c0.3,0,0.5,0.2,0.5,0.5c0,4.9,2.5,6.8,8.9,6.8c3.9,0,6.4-1.2,7-3.5c0.1-0.3,0.2-0.7,0.2-1.1c0-3.6-4.3-4.7-8.8-5.9
				c-1.3-0.4-2.7-0.7-3.9-1.2c-5.9-2.1-11.9-5.4-11.9-13.7c0-6.8,3.6-12.1,10.2-15c0,0,0,0,0.1,0c3.3-1.4,7.1-2.2,11.1-2.2
				c11.9,0,18.8,4.6,20.1,13.2c0.2,1.2,0.3,2.5,0.2,3.9c0,0.3-0.2,0.5-0.5,0.5h-13.4c-0.3,0-0.5-0.2-0.5-0.5c0-1.7-0.5-3-1.6-3.8
				c-1.1-0.9-2.8-1.3-5.1-1.3c-0.3,0-0.6,0-1,0c-2.6,0.2-5.3,1.4-5.3,4.1c0,2.4,1.3,2.9,7.6,4.5l1.4,0.4c0,0,0,0,0,0
				c6.7,1.9,15.7,5.5,15.7,16.2c0,4.2-1.6,8-4.7,11C181.9,65.1,175.3,67.3,167.2,67.3z M147,49c0,1.1,0.1,2.1,0.2,3.1
				c1.4,9.1,8.6,14.3,19.9,14.3c7.9,0,14.2-2.1,18.3-6.1c2.9-2.8,4.4-6.3,4.4-10.2c0-10-8.5-13.5-15-15.2l-1.4-0.4
				c-6.2-1.7-8.3-2.2-8.3-5.5c0-3.3,3.2-4.8,6.2-5.1c0.3,0,0.7-0.1,1.1-0.1c2.5,0,4.4,0.5,5.7,1.5c1.2,0.9,1.9,2.3,2,4.1h12.4
				c0-1.1-0.1-2.2-0.2-3.2c-1.5-10.2-11.3-12.4-19.2-12.4c-3.9,0-7.6,0.7-10.8,2.1c0,0,0,0-0.1,0c-4.4,1.9-9.5,5.9-9.5,14
				c0,7.7,5.7,10.8,11.3,12.8c1.2,0.4,2.5,0.8,3.9,1.1c4.7,1.3,9.6,2.6,9.6,6.9c0,0.5-0.1,1-0.2,1.4c-0.4,1.6-2,4.2-7.9,4.2
				c-6.8,0-9.8-2.1-9.9-7.3H147z"/>
		</g>
	</g>
	<g>
		<g>
			<g>
				<path class="st11" d="M246.8,14.3h-19.3l-10.9,51.4h23c9,0,15.9-2.6,20.8-7c6.3-5.5,9.3-13.7,9.3-22.7
					C269.7,20.2,260,14.3,246.8,14.3z M238.5,25.8h7.7c6.2,0,10.2,3,10.2,11.3c0,3.9-1.1,8.9-4.3,12.5c-2.3,2.7-5.8,4.6-10.7,4.6
					h-8.9L238.5,25.8z"/>
			</g>
		</g>
	</g>
	<g>
		<g>
			<g>
				<g>
					<g>
						<path class="st14" d="M38.8,14.3H18.4L8.4,62h8.5l2.7-12.9h4.9l0.8-3.8h11.9c4.2,0,8-0.7,11.3-2.2c3.2-3.2,5.2-7.7,5.2-13.5
							C53.6,20.5,48,14.3,38.8,14.3z M39.6,34.1c-1.1,2.4-3.8,4-8.2,4H22l2.7-12.7h4.9l0.8-3.8h7.6c4.2,0,8.1,0.6,8.1,5.5
							C45.9,30.7,44,33.4,39.6,34.1z"/>
					</g>
				</g>
			</g>
		</g>
	</g>
	<g>
		<g>
			<polygon class="st15" points="24.5,49.1 21.8,62 16.9,62 19.6,49.1 			"/>
		</g>
	</g>
	<g>
		<g>
			<path class="st13" d="M21.8,62.5h-4.9c-0.2,0-0.3-0.1-0.4-0.2c-0.1-0.1-0.1-0.3-0.1-0.4L19.2,49c0-0.2,0.3-0.4,0.5-0.4h4.9
				c0.2,0,0.3,0.1,0.4,0.2c0.1,0.1,0.1,0.3,0.1,0.4l-2.7,12.9C22.2,62.3,22,62.5,21.8,62.5z M17.5,61.5h3.8l2.5-11.9H20L17.5,61.5z"
				/>
		</g>
	</g>
	<g>
		<g>
			<path class="st15" d="M39.6,34.1c-1.1,2.4-3.8,4-8.2,4H22l5.7-3.8h9.4C38,34.3,38.8,34.2,39.6,34.1z"/>
		</g>
	</g>
	<g>
		<g>
			<path class="st13" d="M31.4,38.6H22c-0.2,0-0.4-0.1-0.5-0.4c-0.1-0.2,0-0.4,0.2-0.6l5.7-3.8c0.1-0.1,0.2-0.1,0.3-0.1h9.4
				c0.9,0,1.7-0.1,2.5-0.2c0.2,0,0.4,0,0.5,0.2c0.1,0.1,0.1,0.3,0.1,0.5C39.2,36.3,36.9,38.6,31.4,38.6z M23.6,37.6h7.8
				c3.5,0,6-1,7.3-2.9c-0.5,0-1.1,0.1-1.6,0.1h-9.3L23.6,37.6z"/>
		</g>
	</g>
	<g>
		<g>
			<polygon class="st15" points="29.5,25.3 27.6,34.3 22,38.1 24.6,25.3 			"/>
		</g>
	</g>
	<g>
		<g>
			<path class="st13" d="M22,38.6c-0.1,0-0.2,0-0.3-0.1c-0.2-0.1-0.3-0.3-0.2-0.5l2.7-12.7c0-0.2,0.3-0.4,0.5-0.4h4.9
				c0.2,0,0.3,0.1,0.4,0.2c0.1,0.1,0.1,0.3,0.1,0.4l-1.9,9c0,0.1-0.1,0.2-0.2,0.3l-5.7,3.8C22.1,38.6,22,38.6,22,38.6z M25,25.8
				L22.7,37l4.5-3l1.7-8.2H25z"/>
		</g>
	</g>
	<g>
		<g>
			<path class="st15" d="M40.2,30.9c0,1.2-0.2,2.3-0.6,3.2c-0.8,0.1-1.6,0.2-2.5,0.2h-9.4l1.9-9h2.7C36.4,25.3,40.2,25.9,40.2,30.9z
				"/>
		</g>
	</g>
	<g>
		<g>
			<path class="st13" d="M37.1,34.8h-9.4c-0.2,0-0.3-0.1-0.4-0.2c-0.1-0.1-0.1-0.3-0.1-0.4l1.9-9c0-0.2,0.3-0.4,0.5-0.4h2.7
				c4.5,0,8.6,0.7,8.6,6c0,1.3-0.2,2.4-0.7,3.4c-0.1,0.2-0.2,0.3-0.4,0.3C38.8,34.7,38,34.8,37.1,34.8z M28.2,33.8h8.8
				c0.8,0,1.5,0,2.2-0.1c0.3-0.8,0.5-1.7,0.5-2.8c0-4.2-2.9-5-7.6-5h-2.3L28.2,33.8z"/>
		</g>
	</g>
	<g>
		<g>
			<path class="st15" d="M59.3,25.9c0,8.7-4.3,14.4-10.8,17.3c3.2-3.2,5.2-7.7,5.2-13.5c0-9.1-5.6-15.3-14.8-15.3H18.4l0.8-3.8h25.3
				C53.7,10.5,59.3,16.7,59.3,25.9z"/>
		</g>
	</g>
	<g>
		<g>
			<path class="st13" d="M48.5,43.7c-0.2,0-0.3-0.1-0.4-0.2c-0.1-0.2-0.1-0.5,0.1-0.6c3.3-3.3,5-7.7,5-13.2c0-9-5.6-14.8-14.3-14.8
				H18.4c-0.2,0-0.3-0.1-0.4-0.2c-0.1-0.1-0.1-0.3-0.1-0.4l0.8-3.8c0-0.2,0.3-0.4,0.5-0.4h25.3c9.3,0,15.3,6.2,15.3,15.8
				c0,8.3-4,14.6-11.2,17.7C48.6,43.7,48.5,43.7,48.5,43.7z M19,13.8h19.8c9.3,0,15.3,6.2,15.3,15.8c0,4.6-1.2,8.7-3.6,11.9
				c5.4-3.2,8.3-8.7,8.3-15.7c0-9-5.6-14.8-14.3-14.8H19.6L19,13.8z"/>
		</g>
	</g>
	<g>
		<g>
			<g>
				<g>
					<path class="st14" d="M85.8,14.3H75.7L47.9,62h10.5l3.1-5.4H65l2.1-3.8h18.1l1.2,9.2h7.2L85.8,14.3z M78.4,46.6H66.7l9.6-18.5
						h0.1l0.6,5.7l4.9-9.3l0.1-0.1h0.1l1.9,18.5H78L78.4,46.6z"/>
				</g>
			</g>
		</g>
	</g>
	<g>
		<g>
			<polygon class="st15" points="99.9,62 93.6,62 85.8,14.3 91.5,10.5 			"/>
		</g>
	</g>
	<g>
		<g>
			<path class="st13" d="M99.9,62.5h-6.3c-0.2,0-0.5-0.2-0.5-0.4l-7.8-47.6c0-0.2,0.1-0.4,0.2-0.5l5.7-3.8c0.1-0.1,0.3-0.1,0.5,0
				c0.2,0.1,0.3,0.2,0.3,0.4l8.4,51.4c0,0.1,0,0.3-0.1,0.4C100.2,62.4,100.1,62.5,99.9,62.5z M94,61.5h5.3l-8.2-50.1l-4.8,3.2
				L94,61.5z"/>
		</g>
	</g>
	<g>
		<g>
			<polygon class="st15" points="91.5,10.5 85.8,14.3 75.7,14.3 77.9,10.5 			"/>
		</g>
	</g>
	<g>
		<g>
			<path class="st13" d="M85.8,14.8H75.7c-0.2,0-0.3-0.1-0.4-0.3c-0.1-0.2-0.1-0.3,0-0.5l2.2-3.8c0.1-0.2,0.3-0.2,0.4-0.2h13.5
				c0.2,0,0.4,0.1,0.5,0.4s0,0.4-0.2,0.6l-5.7,3.8C86,14.8,85.9,14.8,85.8,14.8z M76.6,13.8h9.1l4.2-2.8H78.2L76.6,13.8z"/>
		</g>
	</g>
	<g>
		<g>
			<polygon class="st15" points="78.4,46.6 66.7,46.6 72.3,42.8 78,42.8 			"/>
		</g>
	</g>
	<g>
		<g>
			<path class="st13" d="M78.4,47.1H66.7c-0.2,0-0.4-0.1-0.5-0.4s0-0.4,0.2-0.6l5.7-3.8c0.1-0.1,0.2-0.1,0.3-0.1H78
				c0.3,0,0.5,0.2,0.5,0.4l0.4,3.8c0,0.1,0,0.3-0.1,0.4C78.7,47,78.5,47.1,78.4,47.1z M68.3,46.1h9.5l-0.3-2.8h-5.1L68.3,46.1z"/>
		</g>
	</g>
	<g>
		<g>
			<polygon class="st15" points="77.1,33.8 72.3,42.8 66.7,46.6 76.3,28.1 76.5,28.1 			"/>
		</g>
	</g>
	<g>
		<g>
			<path class="st13" d="M66.7,47.1c-0.1,0-0.2,0-0.3-0.1c-0.2-0.2-0.2-0.4-0.1-0.6l9.6-18.5c0.1-0.2,0.3-0.3,0.4-0.3h0.1
				c0.3,0,0.5,0.2,0.5,0.4l0.6,5.7c0,0.1,0,0.2-0.1,0.3l-4.7,9c0,0.1-0.1,0.1-0.2,0.2L66.9,47C66.9,47.1,66.8,47.1,66.7,47.1z
				 M76.1,29.6L68,45.1l3.9-2.6l4.6-8.8L76.1,29.6z"/>
		</g>
	</g>
	<g>
		<g>
			<polygon class="st15" points="65,56.5 62,62 58.4,62 61.5,56.5 			"/>
		</g>
	</g>
	<g>
		<g>
			<path class="st13" d="M62,62.5h-3.5c-0.2,0-0.3-0.1-0.4-0.2s-0.1-0.3,0-0.5l3.1-5.4c0.1-0.2,0.3-0.3,0.4-0.3H65
				c0.2,0,0.3,0.1,0.4,0.2c0.1,0.2,0.1,0.3,0,0.5l-3.1,5.4C62.3,62.4,62.1,62.5,62,62.5z M59.3,61.5h2.4l2.5-4.4h-2.4L59.3,61.5z"/>
		</g>
	</g>
	<g>
		<g>
			<path class="st13" d="M124.8,63.5c-11.8,0-19.4-5.5-20.9-15c0-0.1,0-0.3,0.1-0.4c0.1-0.1,0.2-0.2,0.4-0.2h7.5
				c0.3,0,0.5,0.2,0.5,0.5c0,4.9,2.5,6.8,8.9,6.8c3.9,0,6.4-1.2,7-3.5c0.1-0.2,0.2-0.3,0.4-0.4c3.5-0.4,5.4-2,5.4-4.5
				c0-3.6-4.3-4.7-8.8-5.9c-1.3-0.4-2.7-0.7-3.9-1.2c-5.9-2.1-11.9-5.4-11.9-13.7c0-4.4,1.5-8.2,4.4-11.1c0,0,0.1-0.1,0.2-0.1
				c3.3-1.4,7.1-2.2,11.2-2.2c11.9,0,18.8,4.6,20.2,13.2c0,0.1,0,0.3-0.1,0.4c-0.1,0.1-0.2,0.2-0.4,0.2h-7.5c-0.3,0-0.5-0.2-0.5-0.5
				c0-1.7-0.5-3-1.6-3.8c-1.1-0.9-2.8-1.3-5.1-1.3c-2.6,0-5.7,0.9-6.2,3.4c0,0.2-0.2,0.4-0.4,0.4c-2.6,0.2-5.3,1.4-5.3,4.1
				c0,2.4,1.3,2.9,7.6,4.5l1.4,0.4c0,0,0,0,0,0c6.7,1.9,15.7,5.6,15.7,16.2c0,4.2-1.6,8-4.7,11c0,0-0.1,0.1-0.1,0.1
				C134.3,62.7,129.9,63.5,124.8,63.5z M105,49c1.6,8.6,8.8,13.6,19.8,13.6c4.9,0,9.1-0.8,12.7-2.4c2.8-2.8,4.3-6.3,4.3-10.2
				c0-9.9-8.5-13.5-15-15.2l-1.4-0.4c-6.2-1.7-8.3-2.2-8.3-5.5c0-3.2,3-4.7,5.8-5c0.8-2.8,4.3-3.9,7.1-3.9c2.6,0,4.4,0.5,5.7,1.5
				c1.2,0.9,1.9,2.3,2,4.1h6.4c-1.8-9.7-11.3-11.8-19.1-11.8c-3.9,0-7.6,0.7-10.7,2.1c-2.7,2.7-4,6.2-4,10.3
				c0,7.7,5.7,10.8,11.3,12.8c1.2,0.4,2.5,0.8,3.9,1.1c4.7,1.3,9.6,2.6,9.6,6.9c0,3-2.2,4.9-6,5.5c-0.5,1.6-2.3,3.9-7.8,3.9
				c-6.8,0-9.8-2.2-9.9-7.3H105z M146.8,52.6C146.7,52.6,146.7,52.6,146.8,52.6c-0.3,0-0.5-0.2-0.5-0.4c-0.2-1.2-0.3-2.4-0.3-3.8
				c0-0.2,0.1-0.3,0.2-0.4l1.4-1c0.2-0.1,0.4-0.1,0.5,0c0.2,0.1,0.3,0.3,0.2,0.5c0,0.3-0.1,0.7-0.1,1c-0.2,1.3-0.6,2.6-1.1,3.8
				C147.1,52.5,146.9,52.6,146.8,52.6z M147,48.7c0,0.4,0,0.8,0,1.1c0.1-0.4,0.2-0.9,0.3-1.4L147,48.7z"/>
		</g>
	</g>
	<g>
		<g>
			<path class="st15" d="M150.7,26h-5.9c-1.5-9.6-9.9-12.8-19.7-12.8c-3.8,0-7.6,0.7-11,2.1c4-4.1,10.4-5.9,16.7-5.9
				C141.7,9.5,151,13.5,150.7,26z"/>
		</g>
	</g>
	<g>
		<g>
			<path class="st13" d="M150.7,26.5h-5.9c-0.2,0-0.5-0.2-0.5-0.4c-1.5-10.2-11.3-12.4-19.2-12.4c-3.9,0-7.6,0.7-10.8,2.1
				c-0.2,0.1-0.5,0-0.6-0.2c-0.1-0.2-0.1-0.5,0.1-0.6c3.8-3.9,10-6.1,17-6.1c7.5,0,13,1.8,16.4,5.3c2.8,2.8,4.1,6.8,4,11.7
				C151.2,26.3,150.9,26.5,150.7,26.5z M145.2,25.5h5c0-4.4-1.2-8-3.7-10.5c-3.2-3.3-8.5-5-15.7-5c-5.6,0-10.6,1.4-14.2,4
				c2.6-0.8,5.5-1.2,8.5-1.2C136.8,12.7,143.7,17.2,145.2,25.5z"/>
		</g>
	</g>
	<g>
		<g>
			<path class="st15" d="M147.9,47.5l-1.4,1c0,1.3,0.1,2.5,0.2,3.7c-1.6,3.5-4.6,6.5-8.9,8.4c3-2.9,4.5-6.6,4.5-10.6
				c0-10.1-8.3-13.8-15.3-15.7c-7.2-1.9-9.4-2.3-9.4-5.4c0-2.9,2.8-4.3,5.8-4.6c-0.1,0.2-0.1,0.5-0.1,0.8c0,3.1,2.2,3.4,9.4,5.4
				c7.1,1.9,15.3,5.6,15.3,15.7C148,46.6,148,47.1,147.9,47.5z"/>
		</g>
	</g>
	<g>
		<g>
			<path class="st13" d="M137.8,61.1c-0.2,0-0.3-0.1-0.4-0.2c-0.1-0.2-0.1-0.5,0.1-0.6c2.9-2.8,4.4-6.3,4.4-10.2
				c0-9.9-8.5-13.5-15-15.2l-1.4-0.4c-6.2-1.7-8.3-2.2-8.3-5.5c0-3.3,3.2-4.8,6.2-5.1c0.2,0,0.3,0.1,0.4,0.2
				c0.1,0.1,0.1,0.3,0.1,0.4c0,0.2-0.1,0.4-0.1,0.7c0,2.4,1.3,2.9,7.6,4.5l1.4,0.4c6.7,1.9,15.7,5.5,15.7,16.2c0,0.5,0,0.9-0.1,1.3
				c0,0.2-0.1,0.3-0.2,0.4l-1.2,0.8c0,1.2,0.1,2.3,0.2,3.3c0,0.1,0,0.2,0,0.3c-1.7,3.7-4.8,6.8-9.2,8.7
				C137.9,61.1,137.9,61.1,137.8,61.1z M122.8,24.9c-2.4,0.3-4.7,1.5-4.7,4c0,2.4,1.3,2.9,7.6,4.5l1.4,0.4
				c6.7,1.9,15.7,5.6,15.7,16.2c0,3.3-1,6.3-2.9,8.9c2.9-1.8,5.1-4.1,6.3-6.9c-0.2-1.1-0.2-2.3-0.2-3.6c0-0.2,0.1-0.3,0.2-0.4
				l1.2-0.8c0-0.3,0-0.7,0-1c0-9.8-8-13.3-15-15.2l-1.4-0.4c-6.3-1.7-8.4-2.2-8.4-5.5C122.8,25,122.8,25,122.8,24.9z"/>
		</g>
	</g>
	<g>
		<g>
			<path class="st15" d="M128.8,51.9c-0.6,2.2-2.9,3.9-7.5,3.9c-6.3,0-9.4-1.8-9.4-7.4l5.7-3.8c0,5.6,3.1,7.4,9.4,7.4
				C127.6,52,128.2,52,128.8,51.9z"/>
		</g>
	</g>
	<g>
		<g>
			<path class="st13" d="M121.3,56.3c-7,0-9.9-2.3-9.9-7.8c0-0.2,0.1-0.3,0.2-0.4l5.7-3.8c0.2-0.1,0.4-0.1,0.5,0
				c0.2,0.1,0.3,0.3,0.3,0.4c0,4.9,2.5,6.8,8.9,6.8c0.6,0,1.2,0,1.7-0.1c0.2,0,0.3,0,0.4,0.2s0.1,0.3,0.1,0.5
				C128.8,53.6,127.3,56.3,121.3,56.3z M112.4,48.7c0.1,4.7,2.6,6.6,8.9,6.6c3.5,0,5.8-1,6.7-2.8c-0.3,0-0.7,0-1,0
				c-6.6,0-9.6-2.1-9.9-6.9L112.4,48.7z"/>
		</g>
	</g>
	<g>
		<g>
			<path class="st15" d="M117.5,44.7l-5.7,3.8h-7.5c-0.2-1.2-0.3-2.4-0.3-3.8H117.5z"/>
		</g>
	</g>
	<g>
		<g>
			<path class="st13" d="M111.9,49h-7.5c-0.2,0-0.5-0.2-0.5-0.4c-0.2-1.2-0.3-2.5-0.3-3.9c0-0.3,0.2-0.5,0.5-0.5h13.4
				c0.2,0,0.4,0.1,0.5,0.4s0,0.4-0.2,0.6l-5.7,3.8C112.1,48.9,112,49,111.9,49z M104.8,48h6.9l4.2-2.8h-11.2
				C104.7,46.1,104.7,47.1,104.8,48z"/>
		</g>
	</g>
	<g>
		<g>
			<path class="st13" d="M172.8,63.5c-11.8,0-19.4-5.5-20.9-15c0-0.1,0-0.3,0.1-0.4c0.1-0.1,0.2-0.2,0.4-0.2h7.5
				c0.3,0,0.5,0.2,0.5,0.5c0,4.9,2.5,6.8,8.9,6.8c3.9,0,6.4-1.2,7-3.5c0.1-0.2,0.2-0.3,0.4-0.4c3.5-0.4,5.4-2,5.4-4.5
				c0-3.6-4.3-4.7-8.8-5.9c-1.3-0.4-2.7-0.7-3.9-1.2c-5.9-2.1-11.9-5.4-11.9-13.7c0-4.4,1.5-8.2,4.4-11.1c0.1-0.1,0.1-0.1,0.2-0.1
				c3.3-1.4,7.1-2.2,11.1-2.2c11.9,0,18.8,4.6,20.1,13.2c0,0.1,0,0.3-0.1,0.4c-0.1,0.1-0.2,0.2-0.4,0.2h-7.5c-0.3,0-0.5-0.2-0.5-0.5
				c0-1.7-0.5-3-1.6-3.8c-1.1-0.9-2.8-1.3-5.1-1.3c-2.6,0-5.7,0.9-6.2,3.4c0,0.2-0.2,0.4-0.4,0.4c-2.6,0.2-5.3,1.4-5.3,4.1
				c0,2.4,1.3,2.9,7.6,4.5l1.4,0.4c0,0,0,0,0,0c6.7,1.9,15.7,5.5,15.7,16.2c0,4.2-1.6,8-4.7,11c0,0-0.1,0.1-0.1,0.1
				C182.3,62.7,177.9,63.5,172.8,63.5z M153,49c1.6,8.6,8.8,13.6,19.8,13.6c4.9,0,9.1-0.8,12.7-2.4c2.8-2.8,4.3-6.3,4.3-10.2
				c0-10-8.5-13.5-15-15.2l-1.4-0.4c-6.2-1.7-8.3-2.2-8.3-5.5c0-3.2,3-4.7,5.8-5c0.8-2.8,4.3-3.9,7.1-3.9c2.5,0,4.4,0.5,5.7,1.5
				c1.2,0.9,1.9,2.3,2,4.1h6.4c-1.8-9.7-11.3-11.8-19.1-11.8c-3.9,0-7.6,0.7-10.7,2.1c-2.7,2.7-4,6.2-4,10.3
				c0,7.7,5.7,10.8,11.3,12.8c1.2,0.4,2.5,0.8,3.9,1.1c4.7,1.3,9.6,2.6,9.6,6.9c0,3-2.2,4.9-6,5.5c-0.5,1.6-2.3,3.9-7.8,3.9
				c-6.8,0-9.8-2.1-9.9-7.3H153z"/>
		</g>
	</g>
	<g>
		<g>
			<path class="st15" d="M198.7,26h-5.9c-1.4-9.6-9.9-12.8-19.6-12.8c-3.8,0-7.7,0.7-11,2.1c4-4.1,10.4-5.9,16.7-5.9
				C189.8,9.5,199.1,13.5,198.7,26z"/>
		</g>
	</g>
	<g>
		<g>
			<path class="st13" d="M198.7,26.5h-5.9c-0.2,0-0.5-0.2-0.5-0.4c-1.5-10.2-11.3-12.4-19.2-12.4c-3.9,0-7.6,0.7-10.8,2.1
				c-0.2,0.1-0.5,0-0.6-0.2c-0.1-0.2-0.1-0.5,0.1-0.6c3.8-3.9,10-6.1,17-6.1c7.4,0,13,1.8,16.4,5.3c2.8,2.9,4.1,6.8,4,11.7
				C199.2,26.3,199,26.5,198.7,26.5z M193.2,25.5h5c0-4.4-1.2-8-3.7-10.5c-3.2-3.3-8.5-5-15.7-5c-5.6,0-10.6,1.4-14.2,4
				c2.6-0.8,5.5-1.2,8.5-1.2C184.8,12.7,191.8,17.2,193.2,25.5z"/>
		</g>
	</g>
	<g>
		<g>
			<path class="st15" d="M196,46.2c0,6-3.5,11.4-10.2,14.4c3-2.9,4.5-6.6,4.5-10.6c0-10.1-8.3-13.8-15.3-15.7
				c-7.2-1.9-9.4-2.3-9.4-5.4c0-2.9,2.8-4.3,5.8-4.6c-0.1,0.2-0.1,0.5-0.1,0.8c0,3.1,2.2,3.4,9.4,5.4C187.7,32.4,196,36.1,196,46.2z
				"/>
		</g>
	</g>
	<g>
		<g>
			<path class="st13" d="M185.8,61.1c-0.2,0-0.3-0.1-0.4-0.2c-0.1-0.2-0.1-0.5,0.1-0.6c2.9-2.8,4.4-6.3,4.4-10.2
				c0-10-8.5-13.5-15-15.2l-1.4-0.4c-6.2-1.7-8.3-2.2-8.3-5.5c0-3.3,3.2-4.8,6.2-5.1c0.2,0,0.3,0.1,0.4,0.2c0.1,0.1,0.1,0.3,0.1,0.4
				c0,0.2-0.1,0.4-0.1,0.7c0,2.4,1.3,2.9,7.6,4.5l1.4,0.4c6.7,1.9,15.7,5.6,15.7,16.2c0,6.4-3.8,11.9-10.5,14.8
				C186,61.1,185.9,61.1,185.8,61.1z M170.8,24.9c-2.4,0.3-4.7,1.5-4.7,4c0,2.4,1.3,2.9,7.6,4.5l1.4,0.4c6.7,1.9,15.7,5.5,15.7,16.2
				c0,3.3-1,6.3-2.9,8.9c4.8-2.9,7.6-7.5,7.6-12.7c0-9.8-8-13.3-15-15.2l-1.4-0.4c-6.3-1.7-8.4-2.2-8.4-5.5
				C170.8,25,170.8,25,170.8,24.9z"/>
		</g>
	</g>
	<g>
		<g>
			<path class="st15" d="M176.8,51.9c-0.6,2.2-2.9,3.9-7.5,3.9c-6.3,0-9.4-1.8-9.4-7.4l5.7-3.8c0,5.6,3.1,7.4,9.4,7.4
				C175.6,52,176.2,52,176.8,51.9z"/>
		</g>
	</g>
	<g>
		<g>
			<path class="st13" d="M169.3,56.3c-7.1,0-9.9-2.3-9.9-7.8c0-0.2,0.1-0.3,0.2-0.4l5.7-3.8c0.2-0.1,0.4-0.1,0.5,0
				c0.2,0.1,0.3,0.3,0.3,0.4c0,4.9,2.5,6.8,8.9,6.8c0.6,0,1.2,0,1.7-0.1c0.2,0,0.3,0,0.4,0.2c0.1,0.1,0.1,0.3,0.1,0.5
				C176.9,53.6,175.3,56.3,169.3,56.3z M160.4,48.7c0.1,4.7,2.6,6.6,8.9,6.6c3.5,0,5.8-1,6.7-2.8c-0.3,0-0.7,0-1,0
				c-6.7,0-9.6-2-9.9-6.9L160.4,48.7z"/>
		</g>
	</g>
	<g>
		<g>
			<path class="st15" d="M165.6,44.7l-5.7,3.8h-7.5c-0.2-1.2-0.3-2.4-0.3-3.8H165.6z"/>
		</g>
	</g>
	<g>
		<g>
			<path class="st13" d="M159.9,49h-7.5c-0.2,0-0.5-0.2-0.5-0.4c-0.2-1.2-0.3-2.5-0.3-3.9c0-0.3,0.2-0.5,0.5-0.5h13.4
				c0.2,0,0.4,0.1,0.5,0.4s0,0.4-0.2,0.6l-5.7,3.8C160.1,48.9,160,49,159.9,49z M152.9,48h6.9l4.2-2.8h-11.3
				C152.7,46.1,152.7,47.1,152.9,48z"/>
		</g>
	</g>
	<g>
		<g>
			<g>
				<path class="st14" d="M246.8,14.3h-14.4L222.3,62h23c5.9,0,11-1.2,15.1-3.2c6.3-5.5,9.3-13.7,9.3-22.7
					C269.7,20.2,260,14.3,246.8,14.3z M252,49.7c-2.3,2.7-5.8,4.6-10.7,4.6h-8.9l6-28.4h4.9l0.8-3.8h7.7c6.2,0,10.2,3,10.2,11.3
					C262,39,259.6,47.1,252,49.7z"/>
			</g>
		</g>
	</g>
	<g>
		<g>
			<path class="st15" d="M252,49.7c-2.3,2.7-5.8,4.6-10.7,4.6h-8.9l5.7-3.8h8.9C248.9,50.4,250.6,50.2,252,49.7z"/>
		</g>
	</g>
	<g>
		<g>
			<path class="st13" d="M241.3,54.7h-8.9c-0.2,0-0.4-0.1-0.5-0.4s0-0.4,0.2-0.6l5.7-3.8c0.1-0.1,0.2-0.1,0.3-0.1h8.9
				c1.8,0,3.4-0.3,4.9-0.8c0.2-0.1,0.4,0,0.6,0.2c0.1,0.2,0.1,0.4,0,0.6C249.7,53.1,246,54.7,241.3,54.7z M234.1,53.7h7.2
				c3.6,0,6.7-1,9-3.1c-1.1,0.2-2.2,0.3-3.4,0.3h-8.7L234.1,53.7z"/>
		</g>
	</g>
	<g>
		<g>
			<polygon class="st15" points="243.3,25.8 238.1,50.4 232.5,54.2 238.5,25.8 			"/>
		</g>
	</g>
	<g>
		<g>
			<path class="st13" d="M232.5,54.7c-0.1,0-0.2,0-0.3-0.1c-0.2-0.1-0.3-0.3-0.2-0.5l6-28.4c0-0.2,0.3-0.4,0.5-0.4h4.9
				c0.2,0,0.3,0.1,0.4,0.2c0.1,0.1,0.1,0.3,0.1,0.4l-5.2,24.6c0,0.1-0.1,0.2-0.2,0.3l-5.7,3.8C232.7,54.7,232.6,54.7,232.5,54.7z
				 M238.9,26.3l-5.6,26.8l4.5-3l5-23.8H238.9z"/>
		</g>
	</g>
	<g>
		<g>
			<path class="st15" d="M275.4,32.3c0,11.3-4.9,21.5-15,26.5c6.3-5.5,9.3-13.7,9.3-22.7c0-15.8-9.7-21.8-22.9-21.8h-14.4l0.8-3.8
				h19.3C265.7,10.5,275.4,16.5,275.4,32.3z"/>
		</g>
	</g>
	<g>
		<g>
			<path class="st13" d="M260.4,59.3c-0.2,0-0.3-0.1-0.4-0.2c-0.1-0.2-0.1-0.5,0.1-0.7c5.9-5.2,9.1-13.1,9.1-22.3
				c0-17.6-12.2-21.2-22.4-21.2h-14.4c-0.2,0-0.3-0.1-0.4-0.2s-0.1-0.3-0.1-0.4l0.8-3.8c0-0.2,0.3-0.4,0.5-0.4h19.3
				c10.7,0,23.4,3.9,23.4,22.2c0,12.3-5.6,22.1-15.3,26.9C260.5,59.2,260.5,59.3,260.4,59.3z M233,13.8h13.8
				c10.7,0,23.4,3.9,23.4,22.2c0,8-2.4,15.1-6.9,20.4c7.4-5,11.5-13.7,11.5-24.2c0-17.6-12.2-21.2-22.4-21.2h-18.9L233,13.8z"/>
		</g>
	</g>
	<g>
		<polygon class="st15" points="19.2,10.5 18.4,14.3 13.5,14.3 		"/>
	</g>
	<g>
		<path class="st13" d="M18.4,14.8h-4.9c-0.2,0-0.4-0.1-0.5-0.4s0-0.4,0.2-0.6l5.7-3.8c0.2-0.1,0.4-0.1,0.6,0
			c0.2,0.1,0.3,0.3,0.2,0.5l-0.8,3.8C18.8,14.7,18.6,14.8,18.4,14.8z M15.2,13.8H18l0.5-2.2L15.2,13.8z"/>
	</g>
	<g>
		<rect x="2.1" y="63.4" transform="matrix(0.8321 -0.5547 0.5547 0.8321 -34.4846 13.8053)" class="st13" width="6.8" height="1"/>
	</g>
	<g>
		<polygon class="st15" points="21.8,62 16.1,65.7 16.9,62 		"/>
	</g>
	<g>
		<path class="st13" d="M16.1,66.2c-0.1,0-0.2,0-0.3-0.1c-0.2-0.1-0.3-0.3-0.2-0.5l0.8-3.8c0-0.2,0.3-0.4,0.5-0.4h4.9
			c0.2,0,0.4,0.1,0.5,0.4s0,0.4-0.2,0.6l-5.7,3.8C16.3,66.2,16.2,66.2,16.1,66.2z M17.3,62.5l-0.5,2.2l3.3-2.2H17.3z"/>
	</g>
	<g>
		<rect x="19.1" y="46.7" transform="matrix(0.8321 -0.5547 0.5547 0.8321 -22.4159 20.398)" class="st13" width="6.8" height="1"/>
	</g>
	<g>
		<rect x="24" y="23" transform="matrix(0.8321 -0.5547 0.5547 0.8321 -8.4009 19.1631)" class="st13" width="6.8" height="1"/>
	</g>
	<g>
		
			<rect x="41.7" y="63.4" transform="matrix(0.8321 -0.5547 0.5547 0.8321 -27.8459 35.7317)" class="st13" width="6.8" height="1"/>
	</g>
	<g>
		<polygon class="st15" points="62,62 56.3,65.7 58.4,62 		"/>
	</g>
	<g>
		<path class="st13" d="M56.3,66.2c-0.1,0-0.2,0-0.3-0.1c-0.2-0.2-0.2-0.4-0.1-0.6l2.1-3.8c0.1-0.2,0.3-0.3,0.4-0.3H62
			c0.2,0,0.4,0.1,0.5,0.4s0,0.4-0.2,0.6l-5.7,3.8C56.5,66.2,56.4,66.2,56.3,66.2z M58.7,62.5l-1,1.7l2.6-1.7H58.7z"/>
	</g>
	<g>
		<polygon class="st15" points="77.9,10.5 75.7,14.3 72.3,14.3 		"/>
	</g>
	<g>
		<path class="st13" d="M75.7,14.8h-3.5c-0.2,0-0.4-0.1-0.5-0.4c-0.1-0.2,0-0.4,0.2-0.6l5.7-3.8c0.2-0.1,0.5-0.1,0.6,0.1
			c0.2,0.2,0.2,0.4,0.1,0.6l-2.2,3.8C76.1,14.7,75.9,14.8,75.7,14.8z M73.9,13.8h1.5l1-1.7L73.9,13.8z"/>
	</g>
	<g>
		<rect x="75.9" y="25.7" transform="matrix(0.8321 -0.5547 0.5547 0.8321 -1.2119 48.3793)" class="st13" width="6.8" height="1"/>
	</g>
	<g>
		
			<rect x="77.8" y="44.2" transform="matrix(0.8321 -0.5547 0.5547 0.8321 -11.1506 52.5656)" class="st13" width="6.8" height="1"/>
	</g>
	<g>
		
			<rect x="60.9" y="54.1" transform="matrix(0.8321 -0.5547 0.5547 0.8321 -19.5044 44.8482)" class="st13" width="6.8" height="1"/>
	</g>
	<g>
		<rect x="79" y="54.1" transform="matrix(0.8321 -0.5547 0.5547 0.8321 -16.4689 54.8737)" class="st13" width="6.8" height="1"/>
	</g>
	<g>
		
			<rect x="80.2" y="63.4" transform="matrix(0.8321 -0.5547 0.5547 0.8321 -21.3759 57.1006)" class="st13" width="6.8" height="1"/>
	</g>
	<g>
		<polygon class="st15" points="99.9,62 94.2,65.7 93.6,62 		"/>
	</g>
	<g>
		<path class="st13" d="M94.2,66.2c-0.1,0-0.1,0-0.2,0c-0.2-0.1-0.3-0.2-0.3-0.4L93.1,62c0-0.1,0-0.3,0.1-0.4
			c0.1-0.1,0.2-0.2,0.4-0.2h6.3c0.2,0,0.4,0.1,0.5,0.4s0,0.4-0.2,0.6l-5.7,3.8C94.4,66.2,94.3,66.2,94.2,66.2z M94.2,62.5l0.4,2.4
			l3.7-2.4H94.2z"/>
	</g>
	<g>
		<path class="st15" d="M104.4,48.5h-5.9l5.7-3.8C104.1,46,104.2,47.3,104.4,48.5z"/>
	</g>
	<g>
		<path class="st13" d="M104.4,49h-5.9c-0.2,0-0.4-0.1-0.5-0.4s0-0.4,0.2-0.6l5.7-3.8c0.2-0.1,0.4-0.1,0.5,0
			c0.2,0.1,0.3,0.3,0.3,0.4c0,1.3,0.1,2.5,0.3,3.7c0,0.1,0,0.3-0.1,0.4C104.7,48.9,104.6,49,104.4,49z M100.1,48h3.7
			c-0.1-0.8-0.2-1.5-0.2-2.3L100.1,48z"/>
	</g>
	<g>
		<rect x="131" y="27.4" transform="matrix(0.8321 -0.5547 0.5547 0.8321 7.092 79.2624)" class="st13" width="6.8" height="1"/>
	</g>
	<g>
		<path class="st15" d="M150.7,26l-5.7,3.8c0-1.4,0-2.6-0.2-3.8H150.7z"/>
	</g>
	<g>
		<path class="st13" d="M145,30.3c-0.1,0-0.2,0-0.2-0.1c-0.2-0.1-0.3-0.3-0.3-0.5c0-1.3,0-2.5-0.2-3.7c0-0.1,0-0.3,0.1-0.4
			c0.1-0.1,0.2-0.2,0.4-0.2h5.9c0.2,0,0.4,0.1,0.5,0.4s0,0.4-0.2,0.6l-5.7,3.8C145.2,30.3,145.1,30.3,145,30.3z M145.4,26.5
			c0.1,0.8,0.1,1.5,0.2,2.3l3.5-2.3H145.4z"/>
	</g>
	<g>
		<path class="st15" d="M152.4,48.5h-4.6c0-0.3,0.1-0.6,0.1-1l4.2-2.8C152.2,46,152.2,47.3,152.4,48.5z"/>
	</g>
	<g>
		<path class="st13" d="M152.4,49h-4.6c-0.1,0-0.3-0.1-0.4-0.2c-0.1-0.1-0.1-0.3-0.1-0.4c0-0.3,0.1-0.6,0.1-0.9
			c0-0.2,0.1-0.3,0.2-0.4l4.2-2.8c0.2-0.1,0.4-0.1,0.5,0c0.2,0.1,0.3,0.3,0.3,0.4c0,1.3,0.1,2.5,0.3,3.7c0,0.1,0,0.3-0.1,0.4
			C152.7,48.9,152.6,49,152.4,49z M148.4,48h3.5c-0.1-0.8-0.2-1.5-0.2-2.3l-3.3,2.2C148.4,47.8,148.4,47.9,148.4,48z"/>
	</g>
	<g>
		
			<rect x="179.1" y="27.4" transform="matrix(0.8321 -0.5547 0.5547 0.8321 15.1575 105.901)" class="st13" width="6.8" height="1"/>
	</g>
	<g>
		<path class="st15" d="M198.7,26l-5.7,3.8c0-1.4,0-2.6-0.2-3.8H198.7z"/>
	</g>
	<g>
		<path class="st13" d="M193,30.3c-0.1,0-0.2,0-0.2-0.1c-0.2-0.1-0.3-0.3-0.3-0.5c0-1.3,0-2.5-0.2-3.7c0-0.1,0-0.3,0.1-0.4
			c0.1-0.1,0.2-0.2,0.4-0.2h5.9c0.2,0,0.4,0.1,0.5,0.4s0,0.4-0.2,0.6l-5.7,3.8C193.2,30.3,193.1,30.3,193,30.3z M193.4,26.5
			c0.1,0.8,0.1,1.5,0.2,2.3l3.5-2.3H193.4z"/>
	</g>
	<g>
		<polygon class="st15" points="233.2,10.5 232.4,14.3 227.5,14.3 		"/>
	</g>
	<g>
		<path class="st13" d="M232.4,14.8h-4.9c-0.2,0-0.4-0.1-0.5-0.4s0-0.4,0.2-0.6l5.7-3.8c0.2-0.1,0.4-0.1,0.6,0
			c0.2,0.1,0.3,0.3,0.2,0.5l-0.8,3.8C232.8,14.7,232.6,14.8,232.4,14.8z M229.2,13.8h2.8l0.5-2.2L229.2,13.8z"/>
	</g>
	<g>
		
			<rect x="237.9" y="23.5" transform="matrix(0.8321 -0.5547 0.5547 0.8321 27.2337 137.8639)" class="st13" width="6.8" height="1"/>
	</g>
	<g>
		
			<rect x="216.1" y="63.4" transform="matrix(0.8321 -0.5547 0.5547 0.8321 1.4415 132.4613)" class="st13" width="6.8" height="1"/>
	</g>
</g>
</svg>
